<svg xmlns="http://www.w3.org/2000/svg" viewBox="0 0 700 860">
  <defs>
    <linearGradient id="bg" x1="0%" x2="100%" y1="0%" y2="100%">
      <stop offset="0%" stop-color="#dfe6f8" />
      <stop offset="100%" stop-color="#f3f6ff" />
    </linearGradient>
    <linearGradient id="coat" x1="0%" x2="100%" y1="0%" y2="100%">
      <stop offset="0%" stop-color="#1c2f56" />
      <stop offset="100%" stop-color="#0f1d38" />
    </linearGradient>
  </defs>
  <rect width="700" height="860" fill="url(#bg)" />
  <circle cx="350" cy="250" r="120" fill="#f0c49e" />
  <path d="M230 390h240l88 382H142l88-382z" fill="url(#coat)" />
  <rect x="280" y="362" width="140" height="92" rx="36" fill="#efc09a" />
  <path
    d="M246 218c0-60 45-110 104-110h5c58 0 103 51 103 110v28H246v-28z"
    fill="#263862"
  />
  <rect x="234" y="500" width="232" height="220" rx="14" fill="#f7fbff" />
  <rect x="262" y="540" width="176" height="18" rx="9" fill="#88a0d6" />
  <rect x="262" y="570" width="136" height="12" rx="6" fill="#afbddf" />
  <rect x="262" y="592" width="166" height="12" rx="6" fill="#afbddf" />
  <rect x="262" y="624" width="124" height="34" rx="10" fill="#ff9a11" />
</svg>
