<svg xmlns="http://www.w3.org/2000/svg" viewBox="0 0 1200 760">
  <defs>
    <linearGradient id="bg" x1="0%" x2="100%" y1="0%" y2="100%">
      <stop offset="0%" stop-color="#f5f8ff" />
      <stop offset="100%" stop-color="#e6edff" />
    </linearGradient>
    <linearGradient id="bar" x1="0%" x2="100%" y1="0%" y2="0%">
      <stop offset="0%" stop-color="#ffb44b" />
      <stop offset="100%" stop-color="#ff9300" />
    </linearGradient>
  </defs>
  <rect width="1200" height="760" rx="20" fill="url(#bg)" />
  <rect x="30" y="30" width="1140" height="58" rx="14" fill="#1f2f4f" />
  <circle cx="82" cy="59" r="9" fill="#ffb44b" />
  <rect x="120" y="50" width="260" height="18" rx="9" fill="#dce6ff" />
  <rect x="55" y="120" width="270" height="250" rx="16" fill="#ffffff" />
  <rect x="355" y="120" width="505" height="250" rx="16" fill="#ffffff" />
  <rect x="890" y="120" width="255" height="250" rx="16" fill="#ffffff" />
  <rect x="55" y="400" width="590" height="305" rx="16" fill="#ffffff" />
  <rect x="675" y="400" width="470" height="305" rx="16" fill="#ffffff" />
  <rect x="84" y="162" width="160" height="14" rx="7" fill="#32508f" />
  <rect x="84" y="188" width="210" height="11" rx="5.5" fill="#afbddf" />
  <rect x="84" y="214" width="190" height="11" rx="5.5" fill="#afbddf" />
  <rect x="84" y="253" width="198" height="28" rx="14" fill="url(#bar)" />
  <rect x="386" y="156" width="275" height="14" rx="7" fill="#32508f" />
  <rect x="386" y="186" width="446" height="10" rx="5" fill="#c3ceea" />
  <rect x="386" y="208" width="386" height="10" rx="5" fill="#c3ceea" />
  <rect x="386" y="242" width="446" height="98" rx="12" fill="#eef2ff" />
  <rect x="920" y="156" width="165" height="14" rx="7" fill="#32508f" />
  <rect x="920" y="186" width="185" height="138" rx="10" fill="#edf2ff" />
  <rect x="84" y="432" width="250" height="14" rx="7" fill="#32508f" />
  <rect x="84" y="462" width="530" height="220" rx="12" fill="#edf2ff" />
  <rect x="706" y="432" width="220" height="14" rx="7" fill="#32508f" />
  <rect x="706" y="462" width="410" height="16" rx="8" fill="#c3ceea" />
  <rect x="706" y="490" width="290" height="16" rx="8" fill="#c3ceea" />
  <rect x="706" y="550" width="200" height="120" rx="12" fill="#edf2ff" />
  <rect x="916" y="550" width="200" height="120" rx="12" fill="#edf2ff" />
</svg>
